<svg width="87" height="15" viewBox="0 0 87 15" fill="none" xmlns="http://www.w3.org/2000/svg">
<path d="M7.5 1.61803L8.59607 4.99139C8.72994 5.40341 9.1139 5.68237 9.54713 5.68237H13.0941L10.2245 7.76722C9.87405 8.02186 9.72739 8.47323 9.86126 8.88525L10.9573 12.2586L8.08779 10.1738C7.7373 9.91912 7.2627 9.91912 6.91221 10.1738L4.04267 12.2586L5.13874 8.88525C5.27261 8.47323 5.12595 8.02186 4.77547 7.76722L1.90592 5.68237H5.45287C5.8861 5.68237 6.27006 5.40341 6.40393 4.99139L7.5 1.61803Z" stroke="#EF8325"/>
<path d="M25.5 1.61803L26.5961 4.99139C26.7299 5.40341 27.1139 5.68237 27.5471 5.68237H31.0941L28.2245 7.76722C27.874 8.02186 27.7274 8.47323 27.8613 8.88525L28.9573 12.2586L26.0878 10.1738C25.7373 9.91912 25.2627 9.91912 24.9122 10.1738L22.0427 12.2586L23.1387 8.88525C23.2726 8.47323 23.126 8.02186 22.7755 7.76722L19.9059 5.68237H23.4529C23.8861 5.68237 24.2701 5.40341 24.4039 4.99139L25.5 1.61803Z" stroke="#EF8325"/>
<path d="M43.5 1.61803L44.5961 4.99139C44.7299 5.40341 45.1139 5.68237 45.5471 5.68237H49.0941L46.2245 7.76722C45.874 8.02186 45.7274 8.47323 45.8613 8.88525L46.9573 12.2586L44.0878 10.1738C43.7373 9.91912 43.2627 9.91912 42.9122 10.1738L40.0427 12.2586L41.1387 8.88525C41.2726 8.47323 41.126 8.02186 40.7755 7.76722L37.9059 5.68237H41.4529C41.8861 5.68237 42.2701 5.40341 42.4039 4.99139L43.5 1.61803Z" stroke="#EF8325"/>
<path d="M61.5 1.61803L62.5961 4.99139C62.7299 5.40341 63.1139 5.68237 63.5471 5.68237H67.0941L64.2245 7.76722C63.874 8.02186 63.7274 8.47323 63.8613 8.88525L64.9573 12.2586L62.0878 10.1738C61.7373 9.91912 61.2627 9.91912 60.9122 10.1738L58.0427 12.2586L59.1387 8.88525C59.2726 8.47323 59.126 8.02186 58.7755 7.76722L55.9059 5.68237H59.4529C59.8861 5.68237 60.2701 5.40341 60.4039 4.99139L61.5 1.61803Z" stroke="#EF8325"/>
<path d="M79.5 1.61803L80.5961 4.99139C80.7299 5.40341 81.1139 5.68237 81.5471 5.68237H85.0941L82.2245 7.76722C81.874 8.02186 81.7274 8.47323 81.8613 8.88525L82.9573 12.2586L80.0878 10.1738C79.7373 9.91912 79.2627 9.91912 78.9122 10.1738L76.0427 12.2586L77.1387 8.88525C77.2726 8.47323 77.126 8.02186 76.7755 7.76722L73.9059 5.68237H77.4529C77.8861 5.68237 78.2701 5.40341 78.4039 4.99139L79.5 1.61803Z" stroke="#EF8325"/>
</svg>
