<svg width="87" height="15" viewBox="0 0 87 15" fill="none" xmlns="http://www.w3.org/2000/svg">
<path d="M7.02447 1.46353C7.17415 1.00287 7.82585 1.00287 7.97553 1.46353L9.0716 4.83688C9.13854 5.04289 9.33051 5.18237 9.54713 5.18237H13.0941C13.5784 5.18237 13.7798 5.80218 13.388 6.08688L10.5184 8.17173C10.3432 8.29905 10.2699 8.52474 10.3368 8.73075L11.4329 12.1041C11.5825 12.5648 11.0553 12.9478 10.6634 12.6631L7.79389 10.5783C7.61865 10.4509 7.38135 10.4509 7.20611 10.5783L4.33656 12.6631C3.9447 12.9478 3.41746 12.5648 3.56714 12.1041L4.66321 8.73075C4.73015 8.52474 4.65682 8.29905 4.48157 8.17173L1.61203 6.08688C1.22017 5.80218 1.42156 5.18237 1.90592 5.18237H5.45287C5.66949 5.18237 5.86146 5.04289 5.9284 4.83688L7.02447 1.46353Z" fill="#EF8325"/>
<path d="M25.5 1.61803L26.5961 4.99139C26.7299 5.40341 27.1139 5.68237 27.5471 5.68237H31.0941L28.2245 7.76722C27.874 8.02186 27.7274 8.47323 27.8613 8.88525L28.9573 12.2586L26.0878 10.1738C25.7373 9.91912 25.2627 9.91912 24.9122 10.1738L22.0427 12.2586L23.1387 8.88525C23.2726 8.47323 23.126 8.02186 22.7755 7.76722L19.9059 5.68237H23.4529C23.8861 5.68237 24.2701 5.40341 24.4039 4.99139L25.5 1.61803Z" stroke="#EF8325"/>
<path d="M43.5 1.61803L44.5961 4.99139C44.7299 5.40341 45.1139 5.68237 45.5471 5.68237H49.0941L46.2245 7.76722C45.874 8.02186 45.7274 8.47323 45.8613 8.88525L46.9573 12.2586L44.0878 10.1738C43.7373 9.91912 43.2627 9.91912 42.9122 10.1738L40.0427 12.2586L41.1387 8.88525C41.2726 8.47323 41.126 8.02186 40.7755 7.76722L37.9059 5.68237H41.4529C41.8861 5.68237 42.2701 5.40341 42.4039 4.99139L43.5 1.61803Z" stroke="#EF8325"/>
<path d="M61.5 1.61803L62.5961 4.99139C62.7299 5.40341 63.1139 5.68237 63.5471 5.68237H67.0941L64.2245 7.76722C63.874 8.02186 63.7274 8.47323 63.8613 8.88525L64.9573 12.2586L62.0878 10.1738C61.7373 9.91912 61.2627 9.91912 60.9122 10.1738L58.0427 12.2586L59.1387 8.88525C59.2726 8.47323 59.126 8.02186 58.7755 7.76722L55.9059 5.68237H59.4529C59.8861 5.68237 60.2701 5.40341 60.4039 4.99139L61.5 1.61803Z" stroke="#EF8325"/>
<path d="M79.5 1.61803L80.5961 4.99139C80.7299 5.40341 81.1139 5.68237 81.5471 5.68237H85.0941L82.2245 7.76722C81.874 8.02186 81.7274 8.47323 81.8613 8.88525L82.9573 12.2586L80.0878 10.1738C79.7373 9.91912 79.2627 9.91912 78.9122 10.1738L76.0427 12.2586L77.1387 8.88525C77.2726 8.47323 77.126 8.02186 76.7755 7.76722L73.9059 5.68237H77.4529C77.8861 5.68237 78.2701 5.40341 78.4039 4.99139L79.5 1.61803Z" stroke="#EF8325"/>
</svg>
