<svg width="24" height="24" viewBox="0 0 24 24" fill="none" xmlns="http://www.w3.org/2000/svg">
<mask id="path-1-outside-1" maskUnits="userSpaceOnUse" x="3" y="1" width="18" height="23" fill="black">
<rect fill="white" x="3" y="1" width="18" height="23"/>
<path fill-rule="evenodd" clip-rule="evenodd" d="M17 3H7C5.9 3 5 3.9 5 5V21L12 18L19 21V5C19 3.9 18.1 3 17 3ZM17 18L12 15.82L7 18V5H17V18Z"/>
</mask>
<path fill-rule="evenodd" clip-rule="evenodd" d="M17 3H7C5.9 3 5 3.9 5 5V21L12 18L19 21V5C19 3.9 18.1 3 17 3ZM17 18L12 15.82L7 18V5H17V18Z" fill="#F2994A"/>
<path d="M5 21H3.5V23.2748L5.59088 22.3787L5 21ZM12 18L12.5909 16.6213L12 16.368L11.4091 16.6213L12 18ZM19 21L18.4091 22.3787L20.5 23.2748V21H19ZM17 18L16.4005 19.375L18.5 20.2904V18H17ZM12 15.82L12.5995 14.445L12 14.1836L11.4005 14.445L12 15.82ZM7 18H5.5V20.2904L7.5995 19.375L7 18ZM7 5V3.5H5.5V5H7ZM17 5H18.5V3.5H17V5ZM17 1.5H7V4.5H17V1.5ZM7 1.5C5.07157 1.5 3.5 3.07157 3.5 5H6.5C6.5 4.72843 6.72843 4.5 7 4.5V1.5ZM3.5 5V21H6.5V5H3.5ZM5.59088 22.3787L12.5909 19.3787L11.4091 16.6213L4.40912 19.6213L5.59088 22.3787ZM11.4091 19.3787L18.4091 22.3787L19.5909 19.6213L12.5909 16.6213L11.4091 19.3787ZM20.5 21V5H17.5V21H20.5ZM20.5 5C20.5 3.07157 18.9284 1.5 17 1.5V4.5C17.2716 4.5 17.5 4.72843 17.5 5H20.5ZM17.5995 16.625L12.5995 14.445L11.4005 17.195L16.4005 19.375L17.5995 16.625ZM11.4005 14.445L6.4005 16.625L7.5995 19.375L12.5995 17.195L11.4005 14.445ZM8.5 18V5H5.5V18H8.5ZM7 6.5H17V3.5H7V6.5ZM15.5 5V18H18.5V5H15.5Z" fill="white" mask="url(#path-1-outside-1)"/>
<path d="M6 20V4H18V20L11.7143 17.1429L6 20Z" fill="#F2994A"/>
</svg>
