<svg width="20" height="20" viewBox="0 0 20 20" fill="none" xmlns="http://www.w3.org/2000/svg">
<path fill-rule="evenodd" clip-rule="evenodd" d="M10.6139 0.877274C10.2528 0.59641 9.74717 0.59641 9.38606 0.877274L1.88606 6.71061C1.64247 6.90006 1.5 7.19137 1.5 7.49996V16.6666C1.5 18.1394 2.69391 19.3333 4.16667 19.3333H7.49096C7.49397 19.3333 7.49698 19.3333 7.5 19.3333C7.50302 19.3333 7.50603 19.3333 7.50904 19.3333H12.491C12.494 19.3333 12.497 19.3333 12.5 19.3333C12.503 19.3333 12.506 19.3333 12.509 19.3333H15.8333C17.3061 19.3333 18.5 18.1394 18.5 16.6666V7.49996C18.5 7.19137 18.3575 6.90006 18.1139 6.71061L10.6139 0.877274ZM13.5 17.3333H15.8333C16.2015 17.3333 16.5 17.0348 16.5 16.6666V7.98904L10 2.93349L3.5 7.98904V16.6666C3.5 17.0348 3.79848 17.3333 4.16667 17.3333H6.5V10C6.5 9.44771 6.94772 9 7.5 9H12.5C13.0523 9 13.5 9.44771 13.5 10V17.3333ZM8.5 17.3333H11.5V11H8.5V17.3333Z" fill="white"/>
</svg>
