<svg width="72" height="67" viewBox="0 0 72 67" fill="none" xmlns="http://www.w3.org/2000/svg">
<g filter="url(#filter0_d)">
<rect x="6" y="6" width="60" height="55" rx="4" fill="white" fill-opacity="0.7"/>
<rect x="6.75" y="6.75" width="58.5" height="53.5" rx="3.25" stroke="white" stroke-width="1.5"/>
</g>
<path d="M18.792 53V44.996H20.496V53H18.792ZM25.961 53V49.496C25.961 49.088 25.865 48.808 25.673 48.656C25.481 48.496 25.221 48.416 24.893 48.416C24.589 48.416 24.325 48.488 24.101 48.632C23.877 48.768 23.701 48.924 23.573 49.1V53H22.049V47.204H23.573V47.96C23.757 47.736 24.021 47.532 24.365 47.348C24.709 47.156 25.121 47.06 25.601 47.06C26.241 47.06 26.713 47.228 27.017 47.564C27.329 47.892 27.485 48.34 27.485 48.908V53H25.961ZM31.0862 53.144C30.5822 53.144 30.0982 53.064 29.6342 52.904C29.1782 52.744 28.7982 52.524 28.4942 52.244L29.1542 51.176C29.2582 51.272 29.3862 51.368 29.5382 51.464C29.6982 51.56 29.8662 51.648 30.0422 51.728C30.2262 51.8 30.4102 51.86 30.5942 51.908C30.7862 51.948 30.9742 51.968 31.1582 51.968C31.4942 51.968 31.7382 51.912 31.8902 51.8C32.0502 51.68 32.1302 51.528 32.1302 51.344C32.1302 51.184 32.0422 51.064 31.8662 50.984C31.6982 50.904 31.4862 50.84 31.2302 50.792C30.9822 50.736 30.7062 50.676 30.4022 50.612C30.1062 50.548 29.8302 50.452 29.5742 50.324C29.3262 50.196 29.1142 50.02 28.9382 49.796C28.7702 49.572 28.6862 49.268 28.6862 48.884C28.6862 48.644 28.7382 48.416 28.8422 48.2C28.9462 47.976 29.0982 47.78 29.2982 47.612C29.5062 47.444 29.7542 47.312 30.0422 47.216C30.3382 47.112 30.6782 47.06 31.0622 47.06C31.5582 47.06 31.9982 47.136 32.3822 47.288C32.7742 47.432 33.1142 47.62 33.4022 47.852L32.7902 48.896C32.6142 48.712 32.3742 48.556 32.0702 48.428C31.7662 48.292 31.4342 48.224 31.0742 48.224C30.7942 48.224 30.5702 48.28 30.4022 48.392C30.2422 48.504 30.1622 48.64 30.1622 48.8C30.1622 48.944 30.2462 49.052 30.4142 49.124C30.5822 49.196 30.7942 49.26 31.0502 49.316C31.3062 49.364 31.5822 49.424 31.8782 49.496C32.1742 49.56 32.4502 49.66 32.7062 49.796C32.9622 49.932 33.1742 50.116 33.3422 50.348C33.5102 50.58 33.5942 50.892 33.5942 51.284C33.5942 51.548 33.5382 51.796 33.4262 52.028C33.3142 52.252 33.1502 52.448 32.9342 52.616C32.7262 52.776 32.4662 52.904 32.1542 53C31.8422 53.096 31.4862 53.144 31.0862 53.144ZM38.0289 53.144C37.6849 53.144 37.3569 53.072 37.0449 52.928C36.7409 52.784 36.4729 52.56 36.2409 52.256V55.208H34.7169V47.204H36.2409V47.936C36.4649 47.656 36.7289 47.44 37.0329 47.288C37.3369 47.136 37.6689 47.06 38.0289 47.06C38.3969 47.06 38.7369 47.128 39.0489 47.264C39.3689 47.4 39.6409 47.596 39.8649 47.852C40.0969 48.108 40.2769 48.428 40.4049 48.812C40.5329 49.188 40.5969 49.616 40.5969 50.096C40.5969 50.576 40.5329 51.008 40.4049 51.392C40.2769 51.768 40.0969 52.088 39.8649 52.352C39.6409 52.608 39.3689 52.804 39.0489 52.94C38.7369 53.076 38.3969 53.144 38.0289 53.144ZM37.5489 51.788C37.9889 51.788 38.3409 51.632 38.6049 51.32C38.8769 51.008 39.0129 50.6 39.0129 50.096C39.0129 49.592 38.8769 49.188 38.6049 48.884C38.3409 48.572 37.9889 48.416 37.5489 48.416C37.3009 48.416 37.0529 48.48 36.8049 48.608C36.5569 48.736 36.3689 48.892 36.2409 49.076V51.128C36.3689 51.312 36.5569 51.468 36.8049 51.596C37.0529 51.724 37.3009 51.788 37.5489 51.788ZM42.469 46.58C42.221 46.58 42.005 46.492 41.821 46.316C41.645 46.14 41.557 45.924 41.557 45.668C41.557 45.412 41.645 45.2 41.821 45.032C42.005 44.856 42.221 44.768 42.469 44.768C42.725 44.768 42.941 44.856 43.117 45.032C43.293 45.2 43.381 45.412 43.381 45.668C43.381 45.924 43.293 46.14 43.117 46.316C42.941 46.492 42.725 46.58 42.469 46.58ZM41.713 53V47.204H43.237V53H41.713ZM44.7482 53V47.204H46.2722V47.996C46.4802 47.74 46.7482 47.52 47.0762 47.336C47.4122 47.152 47.7602 47.06 48.1202 47.06V48.548C48.0082 48.524 47.8682 48.512 47.7002 48.512C47.5722 48.512 47.4362 48.528 47.2922 48.56C47.1562 48.592 47.0202 48.64 46.8842 48.704C46.7562 48.76 46.6362 48.828 46.5242 48.908C46.4202 48.988 46.3362 49.076 46.2722 49.172V53H44.7482ZM51.7964 53.144C51.3564 53.144 50.9444 53.072 50.5604 52.928C50.1844 52.784 49.8564 52.58 49.5764 52.316C49.3044 52.052 49.0884 51.732 48.9284 51.356C48.7764 50.98 48.7004 50.56 48.7004 50.096C48.7004 49.68 48.7724 49.288 48.9164 48.92C49.0684 48.544 49.2764 48.22 49.5404 47.948C49.8044 47.676 50.1204 47.46 50.4884 47.3C50.8564 47.14 51.2604 47.06 51.7004 47.06C52.1324 47.06 52.5244 47.14 52.8764 47.3C53.2364 47.452 53.5444 47.668 53.8004 47.948C54.0564 48.228 54.2524 48.564 54.3884 48.956C54.5324 49.348 54.6044 49.78 54.6044 50.252V50.588H50.2964C50.3444 50.956 50.5084 51.272 50.7884 51.536C51.0764 51.8 51.4684 51.932 51.9644 51.932C52.0844 51.932 52.2164 51.92 52.3604 51.896C52.5044 51.864 52.6444 51.824 52.7804 51.776C52.9244 51.728 53.0564 51.668 53.1764 51.596C53.3044 51.524 53.4164 51.444 53.5124 51.356L54.1844 52.34C53.8964 52.604 53.5404 52.804 53.1164 52.94C52.6924 53.076 52.2524 53.144 51.7964 53.144ZM53.1284 49.556C53.1204 49.42 53.0884 49.276 53.0324 49.124C52.9764 48.972 52.8924 48.836 52.7804 48.716C52.6684 48.588 52.5204 48.484 52.3364 48.404C52.1604 48.316 51.9484 48.272 51.7004 48.272C51.4604 48.272 51.2524 48.312 51.0764 48.392C50.9084 48.472 50.7684 48.576 50.6564 48.704C50.5444 48.824 50.4564 48.96 50.3924 49.112C50.3284 49.264 50.2884 49.412 50.2724 49.556H53.1284Z" fill="#731763"/>
<path d="M35.5004 17.8274C31.8211 17.8274 28.8278 20.8208 28.8278 24.5C28.8278 26.0058 29.3215 27.4285 30.2549 28.6137C30.4392 28.8483 30.6327 29.0729 30.8377 29.3106L30.849 29.3237C31.4761 30.0512 32.1244 30.8038 32.3666 31.6899C32.4213 31.8929 32.4291 32.2823 32.4259 32.5822V33.0919C32.4259 33.5584 32.8041 33.9366 33.2706 33.9366H37.6935C38.1599 33.9366 38.5381 33.5584 38.5381 33.0919V32.5762C38.5353 32.1845 38.5556 31.8987 38.5965 31.7504C38.8399 30.8701 39.5585 30.0249 40.1982 29.2726L40.2258 29.2401C40.4103 29.0232 40.5848 28.8184 40.7436 28.6164C41.6783 27.4305 42.1724 26.0071 42.1724 24.5C42.1723 20.8208 39.1793 17.8274 35.5004 17.8274ZM39.4161 27.5715C39.277 27.7485 39.1131 27.9412 38.9394 28.1451L38.9054 28.1851C38.1581 29.064 37.3112 30.0601 36.9679 31.301C36.9194 31.4771 36.8655 31.7407 36.8517 32.2473H34.1137C34.1019 31.7093 34.0471 31.4333 33.997 31.2475C33.6535 29.9902 32.808 29.0092 32.1286 28.2207L32.1172 28.2074C31.9252 27.9847 31.7439 27.7744 31.5827 27.5694C30.8856 26.6842 30.5171 25.6227 30.5171 24.5C30.5171 21.7523 32.7526 19.5167 35.5004 19.5167C38.2478 19.5167 40.483 21.7523 40.483 24.5C40.483 25.624 40.1143 26.6858 39.4161 27.5715Z" fill="#731763"/>
<path d="M37.6933 34.1763H33.2706C32.8041 34.1763 32.4259 34.5545 32.4259 35.021C32.4259 35.4875 32.8041 35.8657 33.2706 35.8657H37.6934C38.1599 35.8657 38.5381 35.4875 38.5381 35.021C38.5381 34.5545 38.1598 34.1763 37.6933 34.1763Z" fill="#731763"/>
<path d="M36.5876 36.1031H34.3763C33.9098 36.1031 33.5316 36.4813 33.5316 36.9478C33.5316 37.4142 33.9098 37.7924 34.3763 37.7924H36.5876C37.0541 37.7924 37.4323 37.4142 37.4323 36.9478C37.4323 36.4813 37.0541 36.1031 36.5876 36.1031Z" fill="#731763"/>
<path d="M47.1554 23.6553H44.2415C43.775 23.6553 43.3969 24.0335 43.3969 24.4999C43.3969 24.9664 43.775 25.3446 44.2415 25.3446H47.1554C47.6219 25.3446 48 24.9664 48 24.4999C48 24.0335 47.6219 23.6553 47.1554 23.6553Z" fill="#731763"/>
<path d="M27.6035 24.4999C27.6035 24.0335 27.2253 23.6553 26.7589 23.6553H23.8447C23.3782 23.6553 23 24.0335 23 24.4999C23 24.9664 23.3782 25.3446 23.8447 25.3446H26.7589C27.2253 25.3446 27.6035 24.9664 27.6035 24.4999Z" fill="#731763"/>
<path d="M35.5001 16.6041C35.9665 16.6041 36.3447 16.2259 36.3447 15.7594V12.8447C36.3447 12.3782 35.9665 12 35.5001 12C35.0336 12 34.6554 12.3782 34.6554 12.8447V15.7594C34.6554 16.2259 35.0336 16.6041 35.5001 16.6041Z" fill="#731763"/>
<path d="M42.278 30.0835C41.9481 29.7536 41.4134 29.7535 41.0834 30.0834C40.7535 30.4133 40.7534 30.948 41.0833 31.278L43.1438 33.3391C43.3088 33.5041 43.5249 33.5865 43.7412 33.5865C43.9573 33.5865 44.1734 33.5041 44.3384 33.3392C44.6683 33.0093 44.6684 32.4746 44.3385 32.1446L42.278 30.0835Z" fill="#731763"/>
<path d="M28.7211 18.9159C28.8861 19.0808 29.1022 19.1634 29.3184 19.1634C29.5346 19.1634 29.7507 19.081 29.9156 18.9161C30.2455 18.5862 30.2455 18.0515 29.9158 17.7216L27.856 15.6611C27.5262 15.3311 26.9914 15.3311 26.6616 15.6609C26.3316 15.9907 26.3316 16.5255 26.6614 16.8553L28.7211 18.9159Z" fill="#731763"/>
<path d="M28.7219 30.0836L26.6613 32.1447C26.3314 32.4746 26.3315 33.0094 26.6614 33.3392C26.8263 33.504 27.0425 33.5865 27.2586 33.5865C27.4748 33.5865 27.691 33.504 27.856 33.339L29.9166 31.278C30.2465 30.9481 30.2464 30.4132 29.9165 30.0835C29.5866 29.7537 29.0518 29.7537 28.7219 30.0836Z" fill="#731763"/>
<path d="M41.6811 19.1633C41.8972 19.1633 42.1135 19.0808 42.2785 18.9158L44.3385 16.8554C44.6684 16.5256 44.6683 15.9907 44.3384 15.661C44.0086 15.3311 43.4737 15.3311 43.144 15.6611L41.0839 17.7215C40.754 18.0514 40.7541 18.5862 41.084 18.916C41.2488 19.0809 41.4649 19.1633 41.6811 19.1633Z" fill="#731763"/>
<defs>
<filter id="filter0_d" x="0" y="0" width="72" height="67" filterUnits="userSpaceOnUse" color-interpolation-filters="sRGB">
<feFlood flood-opacity="0" result="BackgroundImageFix"/>
<feColorMatrix in="SourceAlpha" type="matrix" values="0 0 0 0 0 0 0 0 0 0 0 0 0 0 0 0 0 0 127 0"/>
<feOffset/>
<feGaussianBlur stdDeviation="3"/>
<feColorMatrix type="matrix" values="0 0 0 0 0 0 0 0 0 0 0 0 0 0 0 0 0 0 0.3 0"/>
<feBlend mode="normal" in2="BackgroundImageFix" result="effect1_dropShadow"/>
<feBlend mode="normal" in="SourceGraphic" in2="effect1_dropShadow" result="shape"/>
</filter>
</defs>
</svg>
