<svg width="23" height="22" viewBox="0 0 23 22" fill="none" xmlns="http://www.w3.org/2000/svg">
<path d="M16.1482 0H6.85182C3.07371 0 0 2.94007 0 6.55392V15.4461C0 19.0599 3.07371 22 6.85182 22H16.1482C19.9263 22 23 19.0599 23 15.4461V6.55392C23 2.94007 19.9262 0 16.1482 0ZM20.6862 15.4461C20.6862 17.8434 18.6544 19.7868 16.1482 19.7868H6.85182C4.34556 19.7868 2.3138 17.8434 2.3138 15.4461V6.55392C2.3138 4.15659 4.34556 2.2132 6.85182 2.2132H16.1482C18.6544 2.2132 20.6862 4.15659 20.6862 6.55392V15.4461Z" fill="url(#paint0_linear)"/>
<path d="M11.4999 5.31006C8.21981 5.31006 5.55127 7.86258 5.55127 11C5.55127 14.1374 8.21981 16.69 11.4999 16.69C14.78 16.69 17.4485 14.1375 17.4485 11C17.4485 7.86254 14.78 5.31006 11.4999 5.31006ZM11.4999 14.4768C9.49242 14.4768 7.86507 12.9202 7.86507 11C7.86507 9.07985 9.49246 7.52326 11.4999 7.52326C13.5074 7.52326 15.1347 9.07985 15.1347 11C15.1347 12.9202 13.5073 14.4768 11.4999 14.4768Z" fill="url(#paint1_linear)"/>
<path d="M17.4601 6.71614C18.2473 6.71614 18.8855 6.1057 18.8855 5.3527C18.8855 4.59969 18.2473 3.98926 17.4601 3.98926C16.6728 3.98926 16.0347 4.59969 16.0347 5.3527C16.0347 6.1057 16.6728 6.71614 17.4601 6.71614Z" fill="url(#paint2_linear)"/>
<defs>
<linearGradient id="paint0_linear" x1="11.5" y1="21.936" x2="11.5" y2="0.170878" gradientUnits="userSpaceOnUse">
<stop stop-color="#E09B3D"/>
<stop offset="0.3" stop-color="#C74C4D"/>
<stop offset="0.6" stop-color="#C21975"/>
<stop offset="1" stop-color="#7024C4"/>
</linearGradient>
<linearGradient id="paint1_linear" x1="11.4999" y1="21.936" x2="11.4999" y2="0.170922" gradientUnits="userSpaceOnUse">
<stop stop-color="#E09B3D"/>
<stop offset="0.3" stop-color="#C74C4D"/>
<stop offset="0.6" stop-color="#C21975"/>
<stop offset="1" stop-color="#7024C4"/>
</linearGradient>
<linearGradient id="paint2_linear" x1="17.4601" y1="21.9359" x2="17.4601" y2="0.170831" gradientUnits="userSpaceOnUse">
<stop stop-color="#E09B3D"/>
<stop offset="0.3" stop-color="#C74C4D"/>
<stop offset="0.6" stop-color="#C21975"/>
<stop offset="1" stop-color="#7024C4"/>
</linearGradient>
</defs>
</svg>
