<svg width="24" height="23" viewBox="0 0 24 23" fill="none" xmlns="http://www.w3.org/2000/svg">
<path d="M12.1119 23C18.4072 23 23.5105 17.8513 23.5105 11.5C23.5105 5.14873 18.4072 0 12.1119 0C5.81668 0 0.713379 5.14873 0.713379 11.5C0.713379 17.8513 5.81668 23 12.1119 23Z" fill="#CB2027"/>
<path d="M13.0317 15.3994C12.17 15.3322 11.8079 14.9011 11.1321 14.4872C10.7607 16.4533 10.3068 18.3381 8.96226 19.3227C8.54674 16.351 9.57142 14.119 10.0473 11.7499C9.23616 10.3723 10.1448 7.59945 11.8557 8.28271C13.9613 9.1228 10.0327 13.405 12.6701 13.9399C15.4235 14.4983 16.5475 9.11972 14.8399 7.37026C12.3728 4.84448 7.65859 7.31286 8.23829 10.9286C8.37951 11.8126 9.28493 12.0809 8.59997 13.3007C7.02098 12.9479 6.54999 11.6914 6.61054 10.0164C6.70827 7.27453 9.05248 5.35472 11.4038 5.08904C14.3775 4.75325 17.1685 6.1907 17.5537 9.01271C17.9871 12.1978 16.2113 15.6471 13.0317 15.3994Z" fill="white"/>
</svg>
