<svg width="72" height="67" viewBox="0 0 72 67" fill="none" xmlns="http://www.w3.org/2000/svg">
<g filter="url(#filter0_d)">
<rect x="6" y="6" width="60" height="55" rx="4" fill="white" fill-opacity="0.7"/>
<rect x="6.75" y="6.75" width="58.5" height="53.5" rx="3.25" stroke="white" stroke-width="1.5"/>
</g>
<path d="M24.792 53V44.996H28.536C28.968 44.996 29.352 45.064 29.688 45.2C30.024 45.336 30.304 45.524 30.528 45.764C30.76 45.996 30.932 46.268 31.044 46.58C31.164 46.892 31.224 47.224 31.224 47.576C31.224 47.928 31.164 48.26 31.044 48.572C30.924 48.884 30.748 49.156 30.516 49.388C30.292 49.62 30.012 49.808 29.676 49.952C29.348 50.088 28.968 50.156 28.536 50.156H26.496V53H24.792ZM28.308 48.656C28.644 48.656 28.924 48.56 29.148 48.368C29.372 48.176 29.484 47.912 29.484 47.576C29.484 47.24 29.372 46.976 29.148 46.784C28.924 46.592 28.644 46.496 28.308 46.496H26.496V48.656H28.308ZM32.2443 53V44.996H33.7683V53H32.2443ZM38.7594 53V52.4C38.5594 52.632 38.2994 52.816 37.9794 52.952C37.6594 53.08 37.3074 53.144 36.9234 53.144C36.6914 53.144 36.4554 53.104 36.2154 53.024C35.9754 52.944 35.7594 52.828 35.5674 52.676C35.3754 52.516 35.2154 52.316 35.0874 52.076C34.9674 51.836 34.9074 51.552 34.9074 51.224C34.9074 50.888 34.9674 50.6 35.0874 50.36C35.2154 50.12 35.3754 49.928 35.5674 49.784C35.7594 49.632 35.9754 49.524 36.2154 49.46C36.4554 49.388 36.6914 49.352 36.9234 49.352C37.3074 49.352 37.6594 49.412 37.9794 49.532C38.3074 49.652 38.5674 49.828 38.7594 50.06V49.28C38.7594 48.984 38.6434 48.748 38.4114 48.572C38.1794 48.396 37.8714 48.308 37.4874 48.308C36.8474 48.308 36.2834 48.536 35.7954 48.992L35.2194 47.972C35.5794 47.66 35.9754 47.432 36.4074 47.288C36.8474 47.136 37.2954 47.06 37.7514 47.06C38.0794 47.06 38.3954 47.096 38.6994 47.168C39.0034 47.24 39.2714 47.364 39.5034 47.54C39.7434 47.708 39.9314 47.932 40.0674 48.212C40.2114 48.492 40.2834 48.84 40.2834 49.256V53H38.7594ZM37.5354 52.112C37.7834 52.112 38.0154 52.072 38.2314 51.992C38.4554 51.904 38.6314 51.776 38.7594 51.608V50.888C38.6314 50.72 38.4554 50.596 38.2314 50.516C38.0154 50.428 37.7834 50.384 37.5354 50.384C37.2314 50.384 36.9714 50.46 36.7554 50.612C36.5474 50.764 36.4434 50.98 36.4434 51.26C36.4434 51.532 36.5474 51.744 36.7554 51.896C36.9714 52.04 37.2314 52.112 37.5354 52.112ZM45.7071 53V49.496C45.7071 49.088 45.6111 48.808 45.4191 48.656C45.2271 48.496 44.9671 48.416 44.6391 48.416C44.3351 48.416 44.0711 48.488 43.8471 48.632C43.6231 48.768 43.4471 48.924 43.3191 49.1V53H41.7951V47.204H43.3191V47.96C43.5031 47.736 43.7671 47.532 44.1111 47.348C44.4551 47.156 44.8671 47.06 45.3471 47.06C45.9871 47.06 46.4591 47.228 46.7631 47.564C47.0751 47.892 47.2311 48.34 47.2311 48.908V53H45.7071Z" fill="#731763"/>
<path fill-rule="evenodd" clip-rule="evenodd" d="M24 18.4333C24 17.3288 24.8954 16.4333 26 16.4333H45.2688C46.3733 16.4333 47.2688 17.3288 47.2688 18.4333V36.3334C47.2688 37.4379 46.3733 38.3334 45.2688 38.3334H26C24.8954 38.3334 24 37.4379 24 36.3334V18.4333Z" stroke="#731763" stroke-width="2" stroke-linecap="round" stroke-linejoin="round"/>
<path d="M40.8052 14V18.8667" stroke="#731763" stroke-width="2" stroke-linecap="round" stroke-linejoin="round"/>
<path d="M30.4635 14V18.8667" stroke="#731763" stroke-width="2" stroke-linecap="round" stroke-linejoin="round"/>
<path d="M24 23.7333H47.2688" stroke="#731763" stroke-width="2" stroke-linecap="round" stroke-linejoin="round"/>
<defs>
<filter id="filter0_d" x="0" y="0" width="72" height="67" filterUnits="userSpaceOnUse" color-interpolation-filters="sRGB">
<feFlood flood-opacity="0" result="BackgroundImageFix"/>
<feColorMatrix in="SourceAlpha" type="matrix" values="0 0 0 0 0 0 0 0 0 0 0 0 0 0 0 0 0 0 127 0"/>
<feOffset/>
<feGaussianBlur stdDeviation="3"/>
<feColorMatrix type="matrix" values="0 0 0 0 0 0 0 0 0 0 0 0 0 0 0 0 0 0 0.3 0"/>
<feBlend mode="normal" in2="BackgroundImageFix" result="effect1_dropShadow"/>
<feBlend mode="normal" in="SourceGraphic" in2="effect1_dropShadow" result="shape"/>
</filter>
</defs>
</svg>
