<svg width="33" height="55" viewBox="0 0 33 55" fill="none" xmlns="http://www.w3.org/2000/svg">
<path fill-rule="evenodd" clip-rule="evenodd" d="M4.3457 29.3692C4.3457 29.2744 4.35888 29.1828 4.38351 29.0959C7.58059 32.1062 11.8876 33.9509 16.6254 33.9509C21.3632 33.9509 25.6701 32.1062 28.8672 29.0959C28.8918 29.1828 28.905 29.2745 28.905 29.3692V53.3395C28.905 54.1286 28.0338 54.6068 27.3681 54.1831L17.1231 47.6636C16.816 47.4682 16.427 47.4551 16.1074 47.6294L5.82456 53.2382C5.15818 53.6017 4.3457 53.1193 4.3457 52.3603V29.3692Z" fill="#731763"/>
<circle cx="16.6252" cy="16.0896" r="15.6286" fill="#731763"/>
<path d="M16.1498 5.83167C16.2994 5.37102 16.9511 5.37102 17.1008 5.83167L19.1447 12.122C19.2116 12.328 19.4036 12.4675 19.6202 12.4675L26.2342 12.4675C26.7186 12.4675 26.92 13.0873 26.5281 13.372L21.1773 17.2596C21.002 17.387 20.9287 17.6126 20.9956 17.8186L23.0395 24.109C23.1891 24.5696 22.6619 24.9527 22.27 24.668L16.9192 20.7804C16.7439 20.653 16.5066 20.653 16.3314 20.7804L10.9805 24.668C10.5887 24.9527 10.0614 24.5696 10.2111 24.109L12.255 17.8187C12.3219 17.6126 12.2486 17.387 12.0733 17.2596L6.72245 13.372C6.33059 13.0873 6.53198 12.4675 7.01634 12.4675L13.6304 12.4675C13.847 12.4675 14.039 12.328 14.1059 12.122L16.1498 5.83167Z" fill="white"/>
</svg>
