<svg width="72" height="67" viewBox="0 0 72 67" fill="none" xmlns="http://www.w3.org/2000/svg">
<g filter="url(#filter0_d)">
<rect x="6" y="6" width="60" height="55" rx="4" fill="white" fill-opacity="0.7"/>
<rect x="6.75" y="6.75" width="58.5" height="53.5" rx="3.25" stroke="white" stroke-width="1.5"/>
</g>
<path fill-rule="evenodd" clip-rule="evenodd" d="M40.0208 27.5H39.0004L38.6388 27.1625C39.9046 25.7375 40.6667 23.8875 40.6667 21.875C40.6667 17.3875 36.9079 13.75 32.2708 13.75C27.6337 13.75 23.875 17.3875 23.875 21.875C23.875 26.3625 27.6337 30 32.2708 30C34.3504 30 36.2621 29.2625 37.7346 28.0375L38.0833 28.3875V29.375L44.5417 35.6125L46.4662 33.75L40.0208 27.5ZM32.2708 27.5C29.0546 27.5 26.4583 24.9875 26.4583 21.875C26.4583 18.7625 29.0546 16.25 32.2708 16.25C35.4871 16.25 38.0833 18.7625 38.0833 21.875C38.0833 24.9875 35.4871 27.5 32.2708 27.5Z" fill="#731763"/>
<path d="M19.8274 53.144C19.0514 53.144 18.3874 53.028 17.8354 52.796C17.2834 52.564 16.8194 52.256 16.4434 51.872L17.3674 50.576C17.6474 50.872 18.0034 51.128 18.4354 51.344C18.8674 51.552 19.3594 51.656 19.9114 51.656C20.3834 51.656 20.7314 51.568 20.9554 51.392C21.1874 51.208 21.3034 51 21.3034 50.768C21.3034 50.536 21.1874 50.36 20.9554 50.24C20.7314 50.112 20.4474 50.004 20.1034 49.916C19.7674 49.828 19.3994 49.736 18.9994 49.64C18.5994 49.544 18.2274 49.408 17.8834 49.232C17.5474 49.056 17.2634 48.82 17.0314 48.524C16.8074 48.22 16.6954 47.816 16.6954 47.312C16.6954 46.976 16.7634 46.664 16.8994 46.376C17.0434 46.08 17.2434 45.82 17.4994 45.596C17.7634 45.372 18.0834 45.196 18.4594 45.068C18.8354 44.94 19.2594 44.876 19.7314 44.876C21.0034 44.876 22.0434 45.248 22.8514 45.992L21.9034 47.24C21.5754 46.936 21.2074 46.716 20.7994 46.58C20.3914 46.436 19.9834 46.364 19.5754 46.364C19.2074 46.364 18.9234 46.44 18.7234 46.592C18.5314 46.736 18.4354 46.928 18.4354 47.168C18.4354 47.376 18.5474 47.54 18.7714 47.66C19.0034 47.772 19.2874 47.872 19.6234 47.96C19.9674 48.04 20.3354 48.132 20.7274 48.236C21.1274 48.332 21.4954 48.472 21.8314 48.656C22.1754 48.832 22.4594 49.072 22.6834 49.376C22.9154 49.68 23.0314 50.08 23.0314 50.576C23.0314 50.944 22.9634 51.284 22.8274 51.596C22.6994 51.908 22.5034 52.18 22.2394 52.412C21.9754 52.636 21.6394 52.816 21.2314 52.952C20.8314 53.08 20.3634 53.144 19.8274 53.144ZM26.8667 53.144C26.4267 53.144 26.0147 53.072 25.6307 52.928C25.2547 52.784 24.9267 52.58 24.6467 52.316C24.3747 52.052 24.1587 51.732 23.9987 51.356C23.8467 50.98 23.7707 50.56 23.7707 50.096C23.7707 49.68 23.8427 49.288 23.9867 48.92C24.1387 48.544 24.3467 48.22 24.6107 47.948C24.8747 47.676 25.1907 47.46 25.5587 47.3C25.9267 47.14 26.3307 47.06 26.7707 47.06C27.2027 47.06 27.5947 47.14 27.9467 47.3C28.3067 47.452 28.6147 47.668 28.8707 47.948C29.1267 48.228 29.3227 48.564 29.4587 48.956C29.6027 49.348 29.6747 49.78 29.6747 50.252V50.588H25.3667C25.4147 50.956 25.5787 51.272 25.8587 51.536C26.1467 51.8 26.5387 51.932 27.0347 51.932C27.1547 51.932 27.2867 51.92 27.4307 51.896C27.5747 51.864 27.7147 51.824 27.8507 51.776C27.9947 51.728 28.1267 51.668 28.2467 51.596C28.3747 51.524 28.4867 51.444 28.5827 51.356L29.2547 52.34C28.9667 52.604 28.6107 52.804 28.1867 52.94C27.7627 53.076 27.3227 53.144 26.8667 53.144ZM28.1987 49.556C28.1907 49.42 28.1587 49.276 28.1027 49.124C28.0467 48.972 27.9627 48.836 27.8507 48.716C27.7387 48.588 27.5907 48.484 27.4067 48.404C27.2307 48.316 27.0187 48.272 26.7707 48.272C26.5307 48.272 26.3227 48.312 26.1467 48.392C25.9787 48.472 25.8387 48.576 25.7267 48.704C25.6147 48.824 25.5267 48.96 25.4627 49.112C25.3987 49.264 25.3587 49.412 25.3427 49.556H28.1987ZM34.2555 53V52.4C34.0555 52.632 33.7955 52.816 33.4755 52.952C33.1555 53.08 32.8035 53.144 32.4195 53.144C32.1875 53.144 31.9515 53.104 31.7115 53.024C31.4715 52.944 31.2555 52.828 31.0635 52.676C30.8715 52.516 30.7115 52.316 30.5835 52.076C30.4635 51.836 30.4035 51.552 30.4035 51.224C30.4035 50.888 30.4635 50.6 30.5835 50.36C30.7115 50.12 30.8715 49.928 31.0635 49.784C31.2555 49.632 31.4715 49.524 31.7115 49.46C31.9515 49.388 32.1875 49.352 32.4195 49.352C32.8035 49.352 33.1555 49.412 33.4755 49.532C33.8035 49.652 34.0635 49.828 34.2555 50.06V49.28C34.2555 48.984 34.1395 48.748 33.9075 48.572C33.6755 48.396 33.3675 48.308 32.9835 48.308C32.3435 48.308 31.7795 48.536 31.2915 48.992L30.7155 47.972C31.0755 47.66 31.4715 47.432 31.9035 47.288C32.3435 47.136 32.7915 47.06 33.2475 47.06C33.5755 47.06 33.8915 47.096 34.1955 47.168C34.4995 47.24 34.7675 47.364 34.9995 47.54C35.2395 47.708 35.4275 47.932 35.5635 48.212C35.7075 48.492 35.7795 48.84 35.7795 49.256V53H34.2555ZM33.0315 52.112C33.2795 52.112 33.5115 52.072 33.7275 51.992C33.9515 51.904 34.1275 51.776 34.2555 51.608V50.888C34.1275 50.72 33.9515 50.596 33.7275 50.516C33.5115 50.428 33.2795 50.384 33.0315 50.384C32.7275 50.384 32.4675 50.46 32.2515 50.612C32.0435 50.764 31.9395 50.98 31.9395 51.26C31.9395 51.532 32.0435 51.744 32.2515 51.896C32.4675 52.04 32.7275 52.112 33.0315 52.112ZM37.2912 53V47.204H38.8152V47.996C39.0232 47.74 39.2912 47.52 39.6192 47.336C39.9552 47.152 40.3032 47.06 40.6632 47.06V48.548C40.5512 48.524 40.4112 48.512 40.2432 48.512C40.1152 48.512 39.9792 48.528 39.8352 48.56C39.6992 48.592 39.5632 48.64 39.4272 48.704C39.2992 48.76 39.1792 48.828 39.0672 48.908C38.9632 48.988 38.8792 49.076 38.8152 49.172V53H37.2912ZM44.3154 53.144C43.8674 53.144 43.4554 53.072 43.0794 52.928C42.7034 52.776 42.3794 52.564 42.1074 52.292C41.8354 52.02 41.6234 51.7 41.4714 51.332C41.3194 50.956 41.2434 50.544 41.2434 50.096C41.2434 49.656 41.3194 49.252 41.4714 48.884C41.6234 48.508 41.8354 48.184 42.1074 47.912C42.3794 47.64 42.7034 47.432 43.0794 47.288C43.4554 47.136 43.8674 47.06 44.3154 47.06C44.9074 47.06 45.3874 47.168 45.7554 47.384C46.1314 47.6 46.4154 47.84 46.6074 48.104L45.6114 49.04C45.3314 48.624 44.9234 48.416 44.3874 48.416C43.9234 48.416 43.5434 48.572 43.2474 48.884C42.9594 49.188 42.8154 49.592 42.8154 50.096C42.8154 50.6 42.9594 51.008 43.2474 51.32C43.5434 51.632 43.9234 51.788 44.3874 51.788C44.6514 51.788 44.8874 51.732 45.0954 51.62C45.3034 51.508 45.4754 51.356 45.6114 51.164L46.6074 52.088C46.4154 52.36 46.1314 52.604 45.7554 52.82C45.3874 53.036 44.9074 53.144 44.3154 53.144ZM51.5277 53V49.472C51.5277 49.072 51.4277 48.796 51.2277 48.644C51.0357 48.492 50.7757 48.416 50.4477 48.416C50.1517 48.416 49.8917 48.488 49.6677 48.632C49.4437 48.768 49.2637 48.924 49.1277 49.1V53H47.6037V44.996H49.1277V47.96C49.3117 47.736 49.5757 47.532 49.9197 47.348C50.2717 47.156 50.6877 47.06 51.1677 47.06C51.8077 47.06 52.2797 47.224 52.5837 47.552C52.8957 47.872 53.0517 48.316 53.0517 48.884V53H51.5277Z" fill="#731763"/>
<defs>
<filter id="filter0_d" x="0" y="0" width="72" height="67" filterUnits="userSpaceOnUse" color-interpolation-filters="sRGB">
<feFlood flood-opacity="0" result="BackgroundImageFix"/>
<feColorMatrix in="SourceAlpha" type="matrix" values="0 0 0 0 0 0 0 0 0 0 0 0 0 0 0 0 0 0 127 0"/>
<feOffset/>
<feGaussianBlur stdDeviation="3"/>
<feColorMatrix type="matrix" values="0 0 0 0 0 0 0 0 0 0 0 0 0 0 0 0 0 0 0.3 0"/>
<feBlend mode="normal" in2="BackgroundImageFix" result="effect1_dropShadow"/>
<feBlend mode="normal" in="SourceGraphic" in2="effect1_dropShadow" result="shape"/>
</filter>
</defs>
</svg>
