<svg width="238" height="67" viewBox="0 0 238 67" fill="none" xmlns="http://www.w3.org/2000/svg">
<g filter="url(#filter0_d)">
<rect x="6" y="6" width="226" height="55" rx="4" fill="white" fill-opacity="0.71"/>
<rect x="6.75" y="6.75" width="224.5" height="53.5" rx="3.25" stroke="white" stroke-width="1.5"/>
</g>
<path d="M21.888 38V28.512H18.512V27.328H26.608V28.512H23.216V38H21.888ZM31.6414 38V37.12C30.9907 37.8347 30.1374 38.192 29.0814 38.192C28.7507 38.192 28.4254 38.1387 28.1054 38.032C27.7854 37.9253 27.4974 37.7653 27.2414 37.552C26.9854 37.328 26.7774 37.056 26.6174 36.736C26.4574 36.416 26.3774 36.048 26.3774 35.632C26.3774 35.2053 26.4574 34.832 26.6174 34.512C26.7774 34.192 26.9854 33.9253 27.2414 33.712C27.4974 33.4987 27.7854 33.344 28.1054 33.248C28.4254 33.1413 28.7507 33.088 29.0814 33.088C29.6147 33.088 30.0947 33.1733 30.5214 33.344C30.9587 33.5147 31.332 33.7813 31.6414 34.144V32.752C31.6414 32.2293 31.4547 31.8293 31.0814 31.552C30.7187 31.264 30.2547 31.12 29.6894 31.12C28.7827 31.12 27.9934 31.4773 27.3214 32.192L26.7614 31.36C27.5827 30.5067 28.612 30.08 29.8494 30.08C30.2547 30.08 30.6387 30.128 31.0014 30.224C31.364 30.32 31.6787 30.4747 31.9454 30.688C32.2227 30.8907 32.4414 31.1573 32.6014 31.488C32.7614 31.8187 32.8414 32.2187 32.8414 32.688V38H31.6414ZM29.5134 37.328C29.94 37.328 30.34 37.248 30.7134 37.088C31.0974 36.928 31.4067 36.688 31.6414 36.368V34.912C31.4067 34.592 31.0974 34.352 30.7134 34.192C30.34 34.032 29.94 33.952 29.5134 33.952C28.948 33.952 28.4894 34.112 28.1374 34.432C27.7854 34.7413 27.6094 35.1467 27.6094 35.648C27.6094 36.1387 27.7854 36.544 28.1374 36.864C28.4894 37.1733 28.948 37.328 29.5134 37.328ZM39.0549 38.192C38.5215 38.192 38.0309 38.0747 37.5829 37.84C37.1349 37.6053 36.7562 37.2693 36.4469 36.832V40.944H35.2469V30.272H36.4469V31.424C36.7242 31.0293 37.0922 30.7093 37.5509 30.464C38.0095 30.208 38.5109 30.08 39.0549 30.08C39.5669 30.08 40.0309 30.176 40.4469 30.368C40.8735 30.5493 41.2362 30.816 41.5349 31.168C41.8442 31.5093 42.0789 31.9307 42.2389 32.432C42.4095 32.9333 42.4949 33.4987 42.4949 34.128C42.4949 34.7573 42.4095 35.3227 42.2389 35.824C42.0789 36.3253 41.8442 36.752 41.5349 37.104C41.2362 37.456 40.8735 37.728 40.4469 37.92C40.0309 38.1013 39.5669 38.192 39.0549 38.192ZM38.7509 37.12C39.1349 37.12 39.4815 37.0453 39.7909 36.896C40.1002 36.7467 40.3615 36.5387 40.5749 36.272C40.7882 36.0053 40.9482 35.6907 41.0549 35.328C41.1722 34.9547 41.2309 34.5547 41.2309 34.128C41.2309 33.7013 41.1722 33.3067 41.0549 32.944C40.9482 32.5813 40.7882 32.2667 40.5749 32C40.3615 31.7333 40.1002 31.5253 39.7909 31.376C39.4815 31.2267 39.1349 31.152 38.7509 31.152C38.2709 31.152 37.8175 31.2747 37.3909 31.52C36.9749 31.7547 36.6602 32.0427 36.4469 32.384V35.872C36.6602 36.2133 36.9749 36.5067 37.3909 36.752C37.8175 36.9973 38.2709 37.12 38.7509 37.12ZM50.4801 38.192C49.9041 38.192 49.4721 38.0373 49.1841 37.728C48.9068 37.408 48.7681 36.96 48.7681 36.384V31.328H47.4881V30.272H48.7681V28.16H49.9681V30.272H51.5361V31.328H49.9681V36.128C49.9681 36.416 50.0321 36.656 50.1601 36.848C50.2881 37.0293 50.4855 37.12 50.7521 37.12C50.9228 37.12 51.0775 37.088 51.2161 37.024C51.3655 36.96 51.4828 36.8853 51.5681 36.8L51.9201 37.696C51.7708 37.8453 51.5788 37.9627 51.3441 38.048C51.1201 38.144 50.8321 38.192 50.4801 38.192ZM56.6073 38.192C56.0206 38.192 55.4873 38.0853 55.0073 37.872C54.5379 37.6587 54.1379 37.3707 53.8073 37.008C53.4766 36.6347 53.2206 36.2027 53.0393 35.712C52.8686 35.2213 52.7833 34.6933 52.7833 34.128C52.7833 33.5733 52.8686 33.0507 53.0393 32.56C53.2206 32.0587 53.4766 31.6267 53.8073 31.264C54.1379 30.9013 54.5379 30.6133 55.0073 30.4C55.4873 30.1867 56.0206 30.08 56.6073 30.08C57.1939 30.08 57.7219 30.1867 58.1913 30.4C58.6713 30.6133 59.0766 30.9013 59.4073 31.264C59.7379 31.6267 59.9886 32.0587 60.1593 32.56C60.3406 33.0507 60.4313 33.5733 60.4313 34.128C60.4313 34.6933 60.3406 35.2213 60.1593 35.712C59.9886 36.2027 59.7379 36.6347 59.4073 37.008C59.0766 37.3707 58.6713 37.6587 58.1913 37.872C57.7219 38.0853 57.1939 38.192 56.6073 38.192ZM56.6073 37.12C57.0233 37.12 57.3859 37.04 57.6953 36.88C58.0153 36.7093 58.2819 36.4907 58.4953 36.224C58.7193 35.9467 58.8846 35.6267 58.9913 35.264C59.1086 34.9013 59.1673 34.5227 59.1673 34.128C59.1673 33.7333 59.1086 33.36 58.9913 33.008C58.8846 32.6453 58.7193 32.3307 58.4953 32.064C58.2819 31.7867 58.0153 31.568 57.6953 31.408C57.3859 31.2373 57.0233 31.152 56.6073 31.152C56.1913 31.152 55.8233 31.2373 55.5033 31.408C55.1833 31.568 54.9113 31.7867 54.6873 32.064C54.4739 32.3307 54.3086 32.6453 54.1913 33.008C54.0846 33.36 54.0312 33.7333 54.0312 34.128C54.0312 34.5227 54.0846 34.9013 54.1913 35.264C54.3086 35.6267 54.4739 35.9467 54.6873 36.224C54.9113 36.4907 55.1833 36.7093 55.5033 36.88C55.8233 37.04 56.1913 37.12 56.6073 37.12ZM68.9605 38.192C68.3205 38.192 67.7392 38.096 67.2165 37.904C66.6938 37.7013 66.2352 37.392 65.8405 36.976L66.4645 36.112C66.7205 36.4107 67.0725 36.672 67.5205 36.896C67.9792 37.1093 68.4752 37.216 69.0085 37.216C69.6058 37.216 70.0592 37.0933 70.3685 36.848C70.6778 36.592 70.8325 36.272 70.8325 35.888C70.8325 35.5787 70.7152 35.344 70.4805 35.184C70.2458 35.0133 69.9472 34.8747 69.5845 34.768C69.2325 34.6613 68.8485 34.5653 68.4325 34.48C68.0272 34.384 67.6432 34.256 67.2805 34.096C66.9285 33.9253 66.6352 33.7067 66.4005 33.44C66.1658 33.1627 66.0485 32.784 66.0485 32.304C66.0485 32.0053 66.1125 31.7227 66.2405 31.456C66.3685 31.1787 66.5552 30.9387 66.8005 30.736C67.0458 30.5333 67.3445 30.3733 67.6965 30.256C68.0592 30.1387 68.4698 30.08 68.9285 30.08C69.5898 30.08 70.1552 30.192 70.6245 30.416C71.0938 30.6293 71.4832 30.8907 71.7925 31.2L71.2325 32.032C70.9978 31.7547 70.6778 31.5253 70.2725 31.344C69.8778 31.152 69.4298 31.056 68.9285 31.056C68.3952 31.056 67.9738 31.1733 67.6645 31.408C67.3658 31.6427 67.2165 31.9307 67.2165 32.272C67.2165 32.5493 67.3338 32.7627 67.5685 32.912C67.8032 33.0613 68.0965 33.1893 68.4485 33.296C68.8112 33.392 69.1952 33.488 69.6005 33.584C70.0165 33.6693 70.4005 33.7973 70.7525 33.968C71.1152 34.1387 71.4138 34.3733 71.6485 34.672C71.8832 34.96 72.0005 35.3547 72.0005 35.856C72.0005 36.176 71.9365 36.48 71.8085 36.768C71.6805 37.056 71.4885 37.3067 71.2325 37.52C70.9765 37.7227 70.6565 37.8827 70.2725 38C69.8992 38.128 69.4618 38.192 68.9605 38.192ZM75.902 38.192C75.326 38.192 74.894 38.0373 74.606 37.728C74.3287 37.408 74.19 36.96 74.19 36.384V31.328H72.91V30.272H74.19V28.16H75.39V30.272H76.958V31.328H75.39V36.128C75.39 36.416 75.454 36.656 75.582 36.848C75.71 37.0293 75.9073 37.12 76.174 37.12C76.3447 37.12 76.4993 37.088 76.638 37.024C76.7873 36.96 76.9047 36.8853 76.99 36.8L77.342 37.696C77.1927 37.8453 77.0007 37.9627 76.766 38.048C76.542 38.144 76.254 38.192 75.902 38.192ZM83.4851 38V37.12C82.8345 37.8347 81.9811 38.192 80.9251 38.192C80.5945 38.192 80.2691 38.1387 79.9491 38.032C79.6291 37.9253 79.3411 37.7653 79.0851 37.552C78.8291 37.328 78.6211 37.056 78.4611 36.736C78.3011 36.416 78.2211 36.048 78.2211 35.632C78.2211 35.2053 78.3011 34.832 78.4611 34.512C78.6211 34.192 78.8291 33.9253 79.0851 33.712C79.3411 33.4987 79.6291 33.344 79.9491 33.248C80.2691 33.1413 80.5945 33.088 80.9251 33.088C81.4585 33.088 81.9385 33.1733 82.3651 33.344C82.8025 33.5147 83.1758 33.7813 83.4851 34.144V32.752C83.4851 32.2293 83.2985 31.8293 82.9251 31.552C82.5625 31.264 82.0985 31.12 81.5331 31.12C80.6265 31.12 79.8371 31.4773 79.1651 32.192L78.6051 31.36C79.4265 30.5067 80.4558 30.08 81.6931 30.08C82.0985 30.08 82.4825 30.128 82.8451 30.224C83.2078 30.32 83.5225 30.4747 83.7891 30.688C84.0665 30.8907 84.2851 31.1573 84.4451 31.488C84.6051 31.8187 84.6851 32.2187 84.6851 32.688V38H83.4851ZM81.3571 37.328C81.7838 37.328 82.1838 37.248 82.5571 37.088C82.9411 36.928 83.2505 36.688 83.4851 36.368V34.912C83.2505 34.592 82.9411 34.352 82.5571 34.192C82.1838 34.032 81.7838 33.952 81.3571 33.952C80.7918 33.952 80.3331 34.112 79.9811 34.432C79.6291 34.7413 79.4531 35.1467 79.4531 35.648C79.4531 36.1387 79.6291 36.544 79.9811 36.864C80.3331 37.1733 80.7918 37.328 81.3571 37.328ZM87.0906 38V30.272H88.2906V31.52C88.6 31.1147 88.9733 30.7787 89.4106 30.512C89.848 30.2453 90.3333 30.112 90.8666 30.112V31.344C90.7173 31.312 90.5573 31.296 90.3866 31.296C90.2053 31.296 90.008 31.3333 89.7946 31.408C89.592 31.472 89.3893 31.5627 89.1866 31.68C88.9946 31.7973 88.8186 31.9307 88.6586 32.08C88.4986 32.2187 88.376 32.368 88.2906 32.528V38H87.0906ZM94.3239 38.192C93.7479 38.192 93.3159 38.0373 93.0279 37.728C92.7505 37.408 92.6119 36.96 92.6119 36.384V31.328H91.3319V30.272H92.6119V28.16H93.8119V30.272H95.3799V31.328H93.8119V36.128C93.8119 36.416 93.8759 36.656 94.0039 36.848C94.1319 37.0293 94.3292 37.12 94.5959 37.12C94.7665 37.12 94.9212 37.088 95.0599 37.024C95.2092 36.96 95.3265 36.8853 95.4119 36.8L95.7639 37.696C95.6145 37.8453 95.4225 37.9627 95.1879 38.048C94.9639 38.144 94.6759 38.192 94.3239 38.192ZM103.152 38.192C102.576 38.192 102.144 38.0373 101.856 37.728C101.579 37.408 101.44 36.96 101.44 36.384V31.328H100.16V30.272H101.44V28.16H102.64V30.272H104.208V31.328H102.64V36.128C102.64 36.416 102.704 36.656 102.832 36.848C102.96 37.0293 103.157 37.12 103.424 37.12C103.595 37.12 103.749 37.088 103.888 37.024C104.037 36.96 104.155 36.8853 104.24 36.8L104.592 37.696C104.443 37.8453 104.251 37.9627 104.016 38.048C103.792 38.144 103.504 38.192 103.152 38.192ZM105.663 39.936C105.748 39.9787 105.855 40.0107 105.983 40.032C106.111 40.0533 106.223 40.064 106.319 40.064C106.586 40.064 106.81 40.0053 106.991 39.888C107.172 39.7813 107.332 39.568 107.471 39.248L107.983 38.08L104.751 30.272H106.047L108.623 36.608L111.183 30.272H112.495L108.623 39.568C108.388 40.1333 108.079 40.5333 107.695 40.768C107.311 41.0027 106.863 41.1253 106.351 41.136C106.223 41.136 106.074 41.1253 105.903 41.104C105.732 41.0827 105.588 41.056 105.471 41.024L105.663 39.936ZM117.555 38.192C117.022 38.192 116.531 38.0747 116.083 37.84C115.635 37.6053 115.256 37.2693 114.947 36.832V40.944H113.747V30.272H114.947V31.424C115.224 31.0293 115.592 30.7093 116.051 30.464C116.51 30.208 117.011 30.08 117.555 30.08C118.067 30.08 118.531 30.176 118.947 30.368C119.374 30.5493 119.736 30.816 120.035 31.168C120.344 31.5093 120.579 31.9307 120.739 32.432C120.91 32.9333 120.995 33.4987 120.995 34.128C120.995 34.7573 120.91 35.3227 120.739 35.824C120.579 36.3253 120.344 36.752 120.035 37.104C119.736 37.456 119.374 37.728 118.947 37.92C118.531 38.1013 118.067 38.192 117.555 38.192ZM117.251 37.12C117.635 37.12 117.982 37.0453 118.291 36.896C118.6 36.7467 118.862 36.5387 119.075 36.272C119.288 36.0053 119.448 35.6907 119.555 35.328C119.672 34.9547 119.731 34.5547 119.731 34.128C119.731 33.7013 119.672 33.3067 119.555 32.944C119.448 32.5813 119.288 32.2667 119.075 32C118.862 31.7333 118.6 31.5253 118.291 31.376C117.982 31.2267 117.635 31.152 117.251 31.152C116.771 31.152 116.318 31.2747 115.891 31.52C115.475 31.7547 115.16 32.0427 114.947 32.384V35.872C115.16 36.2133 115.475 36.5067 115.891 36.752C116.318 36.9973 116.771 37.12 117.251 37.12ZM123.495 29.168C123.282 29.168 123.095 29.0933 122.935 28.944C122.775 28.784 122.695 28.592 122.695 28.368C122.695 28.144 122.775 27.952 122.935 27.792C123.095 27.632 123.282 27.552 123.495 27.552C123.719 27.552 123.911 27.632 124.071 27.792C124.231 27.952 124.311 28.144 124.311 28.368C124.311 28.592 124.231 28.784 124.071 28.944C123.911 29.0933 123.719 29.168 123.495 29.168ZM122.903 38V30.272H124.103V38H122.903ZM131.713 38V32.944C131.713 32.2613 131.553 31.792 131.233 31.536C130.924 31.28 130.508 31.152 129.985 31.152C129.75 31.152 129.521 31.184 129.297 31.248C129.073 31.312 128.86 31.4027 128.657 31.52C128.454 31.6267 128.268 31.7547 128.097 31.904C127.937 32.0427 127.804 32.192 127.697 32.352V38H126.497V30.272H127.697V31.392C127.836 31.232 128.001 31.0773 128.193 30.928C128.385 30.768 128.598 30.624 128.833 30.496C129.078 30.368 129.334 30.2667 129.601 30.192C129.878 30.1173 130.161 30.08 130.449 30.08C132.092 30.08 132.913 30.912 132.913 32.576V38H131.713ZM138.413 41.136C137.752 41.136 137.181 41.056 136.701 40.896C136.221 40.736 135.752 40.432 135.293 39.984L135.901 39.088C136.221 39.472 136.579 39.744 136.973 39.904C137.379 40.064 137.859 40.144 138.413 40.144C138.733 40.144 139.043 40.1013 139.341 40.016C139.64 39.9413 139.901 39.808 140.125 39.616C140.36 39.4347 140.547 39.1947 140.685 38.896C140.824 38.608 140.893 38.2507 140.893 37.824V36.72C140.616 37.1147 140.248 37.4453 139.789 37.712C139.341 37.968 138.845 38.096 138.301 38.096C137.8 38.096 137.336 38.0053 136.909 37.824C136.493 37.6427 136.131 37.3813 135.821 37.04C135.523 36.688 135.288 36.2667 135.117 35.776C134.947 35.2853 134.861 34.7253 134.861 34.096C134.861 33.4773 134.941 32.9227 135.101 32.432C135.272 31.9307 135.507 31.5093 135.805 31.168C136.115 30.816 136.477 30.5493 136.893 30.368C137.32 30.176 137.789 30.08 138.301 30.08C138.824 30.08 139.309 30.2027 139.757 30.448C140.205 30.6827 140.584 31.0133 140.893 31.44V30.272H142.093V37.776C142.093 38.416 141.987 38.9493 141.773 39.376C141.571 39.8133 141.299 40.16 140.957 40.416C140.616 40.672 140.221 40.8533 139.773 40.96C139.336 41.0773 138.883 41.136 138.413 41.136ZM138.589 37.04C138.824 37.04 139.059 37.008 139.293 36.944C139.528 36.8693 139.747 36.7733 139.949 36.656C140.152 36.5387 140.333 36.4053 140.493 36.256C140.653 36.1067 140.787 35.9467 140.893 35.776V32.4C140.787 32.2293 140.653 32.0693 140.493 31.92C140.333 31.7707 140.152 31.6427 139.949 31.536C139.747 31.4187 139.528 31.328 139.293 31.264C139.059 31.1893 138.824 31.152 138.589 31.152C138.205 31.152 137.859 31.2267 137.549 31.376C137.24 31.5147 136.979 31.7173 136.765 31.984C136.552 32.24 136.387 32.5493 136.269 32.912C136.163 33.2747 136.109 33.6693 136.109 34.096C136.109 34.5227 136.163 34.9173 136.269 35.28C136.387 35.632 136.552 35.9413 136.765 36.208C136.979 36.464 137.24 36.6667 137.549 36.816C137.859 36.9653 138.205 37.04 138.589 37.04Z" fill="#4F5D75"/>
<defs>
<filter id="filter0_d" x="0" y="0" width="238" height="67" filterUnits="userSpaceOnUse" color-interpolation-filters="sRGB">
<feFlood flood-opacity="0" result="BackgroundImageFix"/>
<feColorMatrix in="SourceAlpha" type="matrix" values="0 0 0 0 0 0 0 0 0 0 0 0 0 0 0 0 0 0 127 0"/>
<feOffset/>
<feGaussianBlur stdDeviation="3"/>
<feColorMatrix type="matrix" values="0 0 0 0 0 0 0 0 0 0 0 0 0 0 0 0 0 0 0.3 0"/>
<feBlend mode="normal" in2="BackgroundImageFix" result="effect1_dropShadow"/>
<feBlend mode="normal" in="SourceGraphic" in2="effect1_dropShadow" result="shape"/>
</filter>
</defs>
</svg>
